PathFileType	4	(X/Y/Z)	0_coords_data.trc
DataRate	CameraRate	NumFrames	NumMarkers	Units	OrigDataRate	OrigDataStartFrame	OrigNumFrames
30.0	30.0	8	21	m	30.0	42	62
Frame#	Time	THUMB_TIP	THUMB_IP	THUMB_MCP	THUMB_CMC	INDEX_TIP	INDEX_DIP	INDEX_PIP	INDEX_MCP	MIDDLE_TIP	MIDDLE_DIP	MIDDLE_PIP	MIDDLE_MCP	RING_TIP	RING_DIP	RING_PIP	RING_MCP	PINKY_TIP	PINKY_DIP	PINKY_PIP	PINKY_MCP	WRIST
X1	Y1	Z1	X2	Y2	Z2	X3	Y3	Z3	X4	Y4	Z4	X5	Y5	Z5	X6	Y6	Z6	X7	Y7	Z7	X8	Y8	Z8	X9	Y9	Z9	X10	Y10	Z10	X11	Y11	Z11	X12	Y12	Z12	X13	Y13	Z13	X14	Y14	Z14	X15	Y15	Z15	X16	Y16	Z16	X17	Y17	Z17	X18	Y18	Z18	X19	Y19	Z19	X20	Y20	Z20	X21	Y21	Z21
41	1.3666666666666667	-0.003930929899215698	-0.131822998046875	1.0322900390625	-0.002866100072860717	-0.10334600067138672	1.0360400390625	-0.017401599884033205	-0.08039170074462891	1.052050048828125	-0.019315900802612303	-0.04146160125732422	1.05881005859375	0.016952899932861327	-0.10605500030517578	0.9316690063476563	0.002245790004730224	-0.0967958984375	0.9482329711914063	-0.011455300331115723	-0.08643250274658203	0.967343994140625	-0.025354299545288086	-0.06867729949951172	1.0006500244140626	0.029323299407958983	-0.06914980316162109	0.9078400268554687	0.013822500228881835	-0.06298849868774414	0.927739990234375	-0.005239240169525146	-0.05578440093994141	0.9520269775390625	-0.023706499099731444	-0.04519179916381836	0.9896079711914062	0.03238949966430664	-0.03266109848022461	0.90506201171875	0.016333599090576172	-0.02868079948425293	0.9242979736328125	-0.0027952098846435536	-0.025185699462890624	0.9478670043945312	-0.01659049987792969	-0.022249399185180666	0.986625	0.03450669860839844	0.011955900192260742	0.9321939697265625	0.018669300079345703	0.011973299980163575	0.9454030151367188	0.002663039922714233	0.009874770164489746	0.9604749755859375	-0.009908069610595703	0.001036599993705749	0.9887009887695313	-0.04501689910888672	-0.0081248197555542	1.073050048828125
42	1.4	-0.004725110054016113	-0.13246200561523438	1.035469970703125	-0.0028372900485992432	-0.1040270004272461	1.03806005859375	-0.017622100830078126	-0.08052290344238282	1.053300048828125	-0.01960330009460449	-0.04155630111694336	1.059699951171875	0.012595299720764161	-0.10750199890136719	0.929708984375	0.000308818995952606	-0.09789420318603516	0.9481420288085938	-0.011146599769592286	-0.08707730102539063	0.9684710083007813	-0.024461500167846678	-0.06907779693603516	1.0016799926757813	0.024596200942993165	-0.0691093978881836	0.9047990112304688	0.011753499984741211	-0.06329850006103516	0.9270339965820312	-0.004812880039215088	-0.05629949951171875	0.9532310180664062	-0.02280150032043457	-0.045800701141357425	0.9904860229492187	0.028091299057006837	-0.03222359848022461	0.9018380126953125	0.014442099571228027	-0.028760900497436525	0.9236209716796875	-0.002373379945755005	-0.02565519905090332	0.94902197265625	-0.015978400230407714	-0.022838600158691408	0.9875020141601563	0.03195389938354492	0.014305899620056153	0.929614990234375	0.017565599441528322	0.012576199531555176	0.9451510009765625	0.0028801300525665282	0.009403180122375489	0.9612849731445312	-0.00970635986328125	0.00034908801317214903	0.9895009765625	-0.04532220077514648	-0.008169400215148925	1.0734100341796875
43	1.4333333333333333	-0.005336440086364746	-0.13286700439453125	1.0376300048828124	-0.0029024999141693112	-0.10438300323486328	1.03943994140625	-0.017785999298095705	-0.08057849884033202	1.0540899658203124	-0.019859100341796877	-0.04171649932861328	1.0601700439453126	0.009507439613342284	-0.10801399993896485	0.9285390014648438	-0.001064079999923706	-0.0981479034423828	0.9479569702148437	-0.010806400299072266	-0.08743810272216797	0.9690709838867188	-0.023593299865722655	-0.06931349945068359	1.0023499755859375	0.021104999542236328	-0.06841719818115234	0.9028090209960937	0.010199999809265137	-0.0629828987121582	0.926531982421875	-0.00447245979309082	-0.05636709976196289	0.9539039916992188	-0.022050300598144532	-0.04610020065307617	0.9912210083007813	0.025117000579833983	-0.03134129905700683	0.9001069946289062	0.013269200325012206	-0.028312700271606445	0.9232949829101562	-0.001805840015411377	-0.025646799087524413	0.9497730102539063	-0.01526490020751953	-0.023134599685668944	0.988030029296875	0.030163799285888672	0.016111499786376954	0.9285289916992188	0.016806299209594727	0.013282999992370606	0.945041015625	0.003284470081329345	0.009415189743041992	0.9615789794921875	-0.009613840103149415	-5.7080801576375e-05	0.9899580078125	-0.0457927017211914	-0.0081245698928833	1.073760009765625
44	1.4666666666666666	-0.00532496976852417	-0.1330299987792969	1.039489990234375	-0.00284426999092102	-0.10463099670410156	1.0404300537109374	-0.017920000076293945	-0.08062599945068359	1.0545799560546876	-0.02014200019836426	-0.04167190170288086	1.0604599609375	0.008161569595336914	-0.10771600341796875	0.9278839721679687	-0.0014637000560760488	-0.09789510345458985	0.9480289916992187	-0.010374699592590332	-0.08734690093994141	0.9692839965820312	-0.02303820037841797	-0.06941799926757812	1.0025700073242187	0.01950589942932129	-0.06744850158691407	0.9019429931640625	0.009727680206298828	-0.06232540130615234	0.9264569702148437	-0.003998579978942871	-0.056014400482177734	0.9543980102539062	-0.02136779975891113	-0.04628089904785156	0.9913359985351563	0.02426300048828125	-0.03011840057373047	0.8996389770507812	0.013286399841308593	-0.027557100296020508	0.9233380126953125	-0.000983740985393524	-0.025305599212646485	0.9500989990234375	-0.01489210033416748	-0.02313719940185547	0.9885189819335938	0.029352199554443358	0.017608999252319336	0.9282340087890625	0.016682600021362303	0.014037199974060059	0.94535302734375	0.00367421007156372	0.009675390243530273	0.96218701171875	-0.009473939895629883	-8.7433896958827e-05	0.9904739990234375	-0.04619649887084961	-0.00825782012939453	1.0743499755859376
45	1.5	-0.0044793901443481434	-0.13303700256347656	1.03993994140625	-0.002100229978561401	-0.10446900177001953	1.0408699951171876	-0.017488000869750976	-0.0806457977294922	1.054719970703125	-0.020184099197387697	-0.04171549987792969	1.0605400390625	0.007965680122375488	-0.10679000091552734	0.9273889770507813	-0.001027439951896667	-0.09729720306396485	0.9477570190429687	-0.009530799865722656	-0.08689189910888671	0.9693670043945313	-0.022471099853515624	-0.06928780364990235	1.0028200073242188	0.01873769950866699	-0.06610289764404297	0.9013939819335938	0.009623290061950684	-0.06145920181274414	0.926239013671875	-0.003461129903793335	-0.055568599700927736	0.9543900146484375	-0.020908599853515626	-0.04606679916381836	0.9917410278320312	0.02334119987487793	-0.02885860061645508	0.8991530151367187	0.013020799636840821	-0.026625499725341797	0.923208984375	-0.0006609110236167901	-0.024769800186157227	0.950135986328125	-0.014489700317382812	-0.02298979949951172	0.9886619873046875	0.02852680015563965	0.018875999450683592	0.9280819702148437	0.016269800186157226	0.014826199531555177	0.945531005859375	0.003748120069503784	0.010121100425720215	0.9624359741210937	-0.00952754020690918	8.424679748713e-06	0.9906849975585937	-0.04642229843139648	-0.008442819595336914	1.0741199951171876
46	1.5333333333333334	-0.004439199924468994	-0.1329530029296875	1.0414599609375	-0.00179226005077362	-0.10461599731445312	1.0413900146484374	-0.017373699188232422	-0.08059850311279297	1.0549599609375	-0.020092500686645507	-0.041619300842285156	1.0606099853515625	0.006907969951629639	-0.10683000183105469	0.9272750244140625	-0.001446269989013671	-0.09736440277099609	0.9477260131835937	-0.009446000099182129	-0.08701059722900391	0.9695380249023438	-0.022170799255371094	-0.06930670166015625	1.0030800170898437	0.017136999130249023	-0.06588629913330078	0.9008569946289062	0.008794750213623047	-0.06123699951171875	0.9261859741210937	-0.003502490043640136	-0.055532001495361326	0.9544650268554687	-0.020603599548339843	-0.046097900390625	0.9920390014648437	0.02200869941711426	-0.028362499237060548	0.898531005859375	0.012299099922180175	-0.026332399368286134	0.923051025390625	-0.000630077004432678	-0.024704099655151367	0.9500709838867187	-0.01432800006866455	-0.022984500885009765	0.9889869995117188	0.027948400497436524	0.019493600845336915	0.9279739990234375	0.016062299728393556	0.015172599792480469	0.9455919799804687	0.003794719934463501	0.010244500160217286	0.9625830078125	-0.009511560440063476	-3.0757000669836e-05	0.9907410278320312	-0.04653659820556641	-0.008337900161743165	1.07447998046875
47	1.5666666666666667	-0.004267370223999024	-0.13310899353027345	1.0431600341796874	-0.001739570021629333	-0.10486599731445312	1.0422099609375	-0.017660900115966795	-0.08065850067138672	1.0551800537109375	-0.02048699951171875	-0.041671398162841794	1.0609000244140625	0.0049893798828125	-0.10736100006103516	0.9270670166015625	-0.002802839994430542	-0.09773410034179687	0.9478690185546875	-0.010196499824523926	-0.08734519958496094	0.9697050170898438	-0.022466400146484374	-0.06954180145263672	1.0032899780273437	0.015230299949645996	-0.06624859619140624	0.900530029296875	0.00759453010559082	-0.06159749984741211	0.9261010131835937	-0.003993269920349121	-0.05592399978637695	0.9545819702148437	-0.02078899955749512	-0.04643090057373047	0.9920280151367188	0.0204818000793457	-0.028315399169921877	0.8981929931640625	0.011393699645996094	-0.026384199142456054	0.9229810180664062	-0.001056270003318786	-0.02480419921875	0.9504390258789063	-0.014366999626159668	-0.02326810073852539	0.9889719848632812	0.027153499603271486	0.019703800201416016	0.9278330078125	0.015546699523925782	0.015185600280761718	0.9455830078125	0.00354256010055542	0.010097299575805664	0.962656005859375	-0.009820400238037109	-0.000297253012657165	0.990833984375	-0.04678210067749024	-0.008375900268554688	1.07468994140625
48	1.6	-0.004184959888458252	-0.13331900024414062	1.04456005859375	-0.001800740003585815	-0.10508399963378906	1.043219970703125	-0.017724599838256836	-0.08081890106201171	1.0558199462890625	-0.02083869934082031	-0.04178060150146484	1.0611800537109375	0.003616689920425415	-0.10769499969482423	0.9268359985351563	-0.003688290119171142	-0.09799690246582031	0.9479329833984375	-0.010726699829101563	-0.08751940155029297	0.9700369873046875	-0.022850900650024413	-0.0697040023803711	1.003780029296875	0.014279899597167968	-0.0663302993774414	0.9005180053710937	0.006987959861755371	-0.06171260070800781	0.9262659912109374	-0.0042692599296569825	-0.055900699615478514	0.955093994140625	-0.021086799621582032	-0.04650960159301758	0.9925460205078125	0.019596500396728514	-0.028105600357055664	0.8980850219726563	0.010847999572753906	-0.026339799880981445	0.9230540161132812	-0.001187620043754577	-0.024896699905395506	0.9507789916992188	-0.014664699554443359	-0.023425500869750978	0.9895419921875	0.02663509941101074	0.02010379981994629	0.9278679809570313	0.015170999526977539	0.01532859992980957	0.9457979736328125	0.003318409919738769	0.010065699577331543	0.9629329833984375	-0.009971320152282715	-0.000350910007953643	0.9913369750976563	-0.047257999420166015	-0.008457059860229493	1.0749300537109374
